# xmcd
#
# Track frame offsets:
#	150
#	26776
#	56986
#	83733
#	96228
#	120581
#
# Disc length: 2020 seconds
# Revision: 0
# Processed by: cddbd v1.5.2PL0 Copyright (c) Steve Scherf et al.
# Submitted via: dBpowerAMP V12.0
#
DISCID=4b07e206
DTITLE=The Travelin' McCourys and The Lee Boys - Meetin' in the Middle
DYEAR=2010
DGENRE=Bluegrass
TTITLE0=Let's Celebrate
TTITLE1=Walking In Jerusalem Just Like John
TTITLE2=I Belive
TTITLE3=Lean On Me
TTITLE4=Celebrate My Life
TTITLE5=Midnight Rider
EXTD=
EXTT0=
EXTT1=
EXTT2=
EXTT3=
EXTT4=
EXTT5=
PLAYORDER=
